<?xml version="1.0" encoding="UTF-8"?>
<!DOCTYPE svg PUBLIC "-//W3C//DTD SVG 1.1//EN" "http://www.w3.org/Graphics/SVG/1.1/DTD/svg11.dtd">
<svg xmlns="http://www.w3.org/2000/svg" version="1.1" width="189px" height="189px" style="shape-rendering:geometricPrecision; text-rendering:geometricPrecision; image-rendering:optimizeQuality; fill-rule:evenodd; clip-rule:evenodd" xmlns:xlink="http://www.w3.org/1999/xlink">
<g><path style="opacity:0.985" fill="#030303" d="M 80.5,-0.5 C 89.5,-0.5 98.5,-0.5 107.5,-0.5C 152.167,8.83333 179.167,35.8333 188.5,80.5C 188.5,89.5 188.5,98.5 188.5,107.5C 179.167,152.167 152.167,179.167 107.5,188.5C 98.5,188.5 89.5,188.5 80.5,188.5C 35.8333,179.167 8.83333,152.167 -0.5,107.5C -0.5,98.5 -0.5,89.5 -0.5,80.5C 8.83333,35.8333 35.8333,8.83333 80.5,-0.5 Z"/></g>
<g><path style="opacity:1" fill="#5b5b5b" d="M 108.5,22.5 C 110.473,21.8373 112.639,21.5039 115,21.5C 118.477,21.3275 121.644,21.9942 124.5,23.5C 119.203,22.7255 113.87,22.3921 108.5,22.5 Z"/></g>
<g><path style="opacity:1" fill="#8e8e8e" d="M 107.5,22.5 C 103.06,24.5376 98.3934,26.2042 93.5,27.5C 97.6303,24.6761 102.297,23.0094 107.5,22.5 Z"/></g>
<g><path style="opacity:1" fill="#f6f6f6" d="M 107.5,22.5 C 107.833,22.5 108.167,22.5 108.5,22.5C 113.87,22.3921 119.203,22.7255 124.5,23.5C 125.167,23.5 125.833,23.5 126.5,23.5C 126.973,24.9063 127.973,25.573 129.5,25.5C 132.806,26.8202 135.806,28.6535 138.5,31C 140.464,32.451 141.797,34.2843 142.5,36.5C 142.738,38.4044 143.738,39.7377 145.5,40.5C 146.338,40.8417 146.672,41.5084 146.5,42.5C 146.259,44.8984 146.926,46.8984 148.5,48.5C 150.397,53.8979 151.731,59.5645 152.5,65.5C 154.188,66.5213 155.521,67.8546 156.5,69.5C 157.5,71.5 158.5,73.5 159.5,75.5C 158.508,75.3284 157.842,75.6618 157.5,76.5C 155.973,76.427 154.973,77.0937 154.5,78.5C 153.417,78.5394 152.417,78.8728 151.5,79.5C 150.369,83.1645 149.369,86.8311 148.5,90.5C 147.596,91.209 147.263,92.209 147.5,93.5C 153.5,93.5 159.5,93.5 165.5,93.5C 165.5,97.8333 165.5,102.167 165.5,106.5C 165.5,106.833 165.5,107.167 165.5,107.5C 164.129,109.936 163.129,112.603 162.5,115.5C 161.326,116.514 160.66,117.847 160.5,119.5C 159.094,119.973 158.427,120.973 158.5,122.5C 156.5,123.833 154.833,125.5 153.5,127.5C 151.973,127.427 150.973,128.094 150.5,129.5C 142.487,133.841 133.82,136.341 124.5,137C 118.6,144.401 111.934,150.901 104.5,156.5C 102.973,156.427 101.973,157.094 101.5,158.5C 99.9731,158.427 98.9731,159.094 98.5,160.5C 87.3943,166.8 75.3943,169.466 62.5,168.5C 60.3155,166.415 57.6489,165.415 54.5,165.5C 54.0269,164.094 53.0269,163.427 51.5,163.5C 51.0472,162.542 50.3805,161.708 49.5,161C 50.0944,160.536 50.7611,160.369 51.5,160.5C 53.4352,161.15 55.4352,161.483 57.5,161.5C 63.3702,162.766 69.3702,162.766 75.5,161.5C 78.716,161.655 81.3826,160.655 83.5,158.5C 85.698,158.88 87.3646,158.213 88.5,156.5C 91.5662,154.11 94.8996,152.11 98.5,150.5C 100.749,149.92 102.415,148.587 103.5,146.5C 106.167,143.167 109.167,140.167 112.5,137.5C 115.243,135.761 117.243,133.427 118.5,130.5C 119.34,128.147 120.674,126.147 122.5,124.5C 125.61,123.912 128.61,123.245 131.5,122.5C 133.042,121.699 134.708,121.366 136.5,121.5C 138.848,121.408 140.514,120.408 141.5,118.5C 142.436,117.026 143.77,116.026 145.5,115.5C 146.906,115.027 147.573,114.027 147.5,112.5C 148.906,112.027 149.573,111.027 149.5,109.5C 149.5,109.167 149.5,108.833 149.5,108.5C 150.404,107.791 150.737,106.791 150.5,105.5C 144.5,105.5 138.5,105.5 132.5,105.5C 132.433,104.041 132.766,102.708 133.5,101.5C 135.655,99.3826 136.655,96.716 136.5,93.5C 137.341,91.6208 137.675,89.6208 137.5,87.5C 138.924,85.4855 139.59,83.1522 139.5,80.5C 140.654,74.013 140.821,67.3464 140,60.5C 139.502,56.5086 138.335,52.842 136.5,49.5C 131.831,38.831 123.831,32.1643 112.5,29.5C 110.359,28.8367 108.025,28.5034 105.5,28.5C 101.859,28.3148 98.5256,28.9814 95.5,30.5C 94.8333,30.5 94.1667,30.5 93.5,30.5C 92.448,30.6495 91.448,30.4828 90.5,30C 91.3805,29.2917 92.0472,28.4584 92.5,27.5C 92.8333,27.5 93.1667,27.5 93.5,27.5C 98.3934,26.2042 103.06,24.5376 107.5,22.5 Z"/></g>
<g><path style="opacity:1" fill="#7c7c7c" d="M 126.5,23.5 C 128.027,23.427 129.027,24.0937 129.5,25.5C 127.973,25.573 126.973,24.9063 126.5,23.5 Z"/></g>
<g><path style="opacity:1" fill="#686868" d="M 112.5,29.5 C 106.797,29.3748 101.13,29.7081 95.5,30.5C 98.5256,28.9814 101.859,28.3148 105.5,28.5C 108.025,28.5034 110.359,28.8367 112.5,29.5 Z"/></g>
<g><path style="opacity:1" fill="#b2b2b2" d="M 92.5,27.5 C 92.0472,28.4584 91.3805,29.2917 90.5,30C 91.448,30.4828 92.448,30.6495 93.5,30.5C 87.4984,32.6698 81.8317,35.6698 76.5,39.5C 75.8333,39.5 75.5,39.1667 75.5,38.5C 80.6476,34.089 86.3143,30.4223 92.5,27.5 Z"/></g>
<g><path style="opacity:1" fill="#a7a7a7" d="M 142.5,36.5 C 144.262,37.2623 145.262,38.5956 145.5,40.5C 143.738,39.7377 142.738,38.4044 142.5,36.5 Z"/></g>
<g><path style="opacity:1" fill="#767676" d="M 75.5,38.5 C 75.5,39.1667 75.8333,39.5 76.5,39.5C 75.205,40.4884 73.8717,41.4884 72.5,42.5C 71.8333,42.5 71.5,42.1667 71.5,41.5C 72.8333,40.5 74.1667,39.5 75.5,38.5 Z"/></g>
<g><path style="opacity:1" fill="#3c3c3c" d="M 71.5,41.5 C 71.5,42.1667 71.8333,42.5 72.5,42.5C 71.4923,44.3386 69.9923,45.6719 68,46.5C 68.0768,44.2285 69.2435,42.5618 71.5,41.5 Z"/></g>
<g><path style="opacity:1" fill="#a2a2a2" d="M 146.5,42.5 C 148.074,44.1016 148.741,46.1016 148.5,48.5C 146.926,46.8984 146.259,44.8984 146.5,42.5 Z"/></g>
<g><path style="opacity:1" fill="#808080" d="M 136.5,49.5 C 138.335,52.842 139.502,56.5086 140,60.5C 140.821,67.3464 140.654,74.013 139.5,80.5C 139.942,70.0017 138.942,59.6683 136.5,49.5 Z"/></g>
<g><path style="opacity:1" fill="#727272" d="M 43.5,57.5 C 46.3138,56.8353 49.3138,56.502 52.5,56.5C 56.7968,56.2783 60.7968,56.945 64.5,58.5C 57.5352,57.6591 50.5352,57.3257 43.5,57.5 Z"/></g>
<g><path style="opacity:1" fill="#838383" d="M 135.5,57.5 C 127.713,57.1318 120.046,57.7985 112.5,59.5C 114.277,58.3995 116.277,57.5662 118.5,57C 124.349,56.1816 130.015,56.3483 135.5,57.5 Z"/></g>
<g><path style="opacity:1" fill="#f8f8f8" d="M 135.5,57.5 C 136.338,57.8417 136.672,58.5084 136.5,59.5C 136.5,63.5 136.5,67.5 136.5,71.5C 135.5,71.5 134.5,71.5 133.5,71.5C 129.399,70.2092 125.399,70.2092 121.5,71.5C 119.302,71.1201 117.635,71.7868 116.5,73.5C 114.973,73.427 113.973,74.0937 113.5,75.5C 111.167,77.1667 109.167,79.1667 107.5,81.5C 106.094,81.9731 105.427,82.9731 105.5,84.5C 103.926,86.1016 103.259,88.1016 103.5,90.5C 100.875,101.594 104.209,110.594 113.5,117.5C 113.973,118.906 114.973,119.573 116.5,119.5C 116.973,120.906 117.973,121.573 119.5,121.5C 117.5,125.167 115.5,128.833 113.5,132.5C 112.5,132.5 111.5,132.5 110.5,132.5C 110.027,131.094 109.027,130.427 107.5,130.5C 107.027,129.094 106.027,128.427 104.5,128.5C 100.874,126.541 97.8739,123.874 95.5,120.5C 95.573,118.973 94.9063,117.973 93.5,117.5C 93.1075,115.716 92.4408,114.05 91.5,112.5C 90.871,109.603 89.871,106.936 88.5,104.5C 88.5,104.167 88.5,103.833 88.5,103.5C 88.1518,96.0455 88.8185,88.7121 90.5,81.5C 91.3382,81.1583 91.6716,80.4916 91.5,79.5C 92.9063,79.0269 93.573,78.0269 93.5,76.5C 94.9063,76.0269 95.573,75.0269 95.5,73.5C 96.9063,73.0269 97.573,72.0269 97.5,70.5C 97.8333,69.5 98.5,68.8333 99.5,68.5C 101.749,67.9202 103.415,66.5869 104.5,64.5C 104.973,63.0937 105.973,62.427 107.5,62.5C 109.027,62.573 110.027,61.9063 110.5,60.5C 111.492,60.6716 112.158,60.3382 112.5,59.5C 120.046,57.7985 127.713,57.1318 135.5,57.5 Z"/></g>
<g><path style="opacity:1" fill="#868686" d="M 43.5,57.5 C 41.4855,58.9238 39.1522,59.5905 36.5,59.5C 38.5145,58.0762 40.8478,57.4095 43.5,57.5 Z"/></g>
<g><path style="opacity:1" fill="#f7f7f7" d="M 43.5,57.5 C 50.5352,57.3257 57.5352,57.6591 64.5,58.5C 67.054,59.6056 69.7206,60.439 72.5,61C 74.699,62.6971 77.0324,64.1971 79.5,65.5C 80.3857,66.325 80.719,67.325 80.5,68.5C 78.4131,69.5846 77.0798,71.2512 76.5,73.5C 75.0937,73.9731 74.427,74.9731 74.5,76.5C 71.4335,77.6436 68.7668,76.977 66.5,74.5C 64.9674,72.7549 62.9674,71.7549 60.5,71.5C 59.1667,71.5 57.8333,71.5 56.5,71.5C 55.036,70.8401 53.3693,70.5068 51.5,70.5C 48.5143,70.3817 45.8476,71.0483 43.5,72.5C 39.082,73.8299 37.4153,76.8299 38.5,81.5C 38.5,82.8333 39.1667,83.5 40.5,83.5C 40.9731,84.9063 41.9731,85.573 43.5,85.5C 44.5676,86.4345 45.901,86.7678 47.5,86.5C 49.5145,87.9238 51.8478,88.5905 54.5,88.5C 59.6698,90.0371 65.0032,91.3705 70.5,92.5C 71.5137,93.6737 72.847,94.3404 74.5,94.5C 75.795,95.4884 77.1283,96.4884 78.5,97.5C 78.7376,99.4044 79.7376,100.738 81.5,101.5C 81.427,103.027 82.0937,104.027 83.5,104.5C 86.5637,115.253 83.897,124.253 75.5,131.5C 73.0326,131.755 71.0326,132.755 69.5,134.5C 61.1952,135.332 52.8619,135.665 44.5,135.5C 41.855,133.69 38.855,132.69 35.5,132.5C 33.847,132.34 32.5137,131.674 31.5,130.5C 31.0269,129.094 30.0269,128.427 28.5,128.5C 28.0269,127.094 27.0269,126.427 25.5,126.5C 23.9519,126.179 23.2852,125.179 23.5,123.5C 25.2624,122.738 26.2624,121.404 26.5,119.5C 28.1413,112.842 31.4746,111.842 36.5,116.5C 36.9731,117.906 37.9731,118.573 39.5,118.5C 41.153,118.66 42.4863,119.326 43.5,120.5C 45.5145,121.924 47.8478,122.59 50.5,122.5C 56.3506,123.326 61.684,122.159 66.5,119C 69.9717,115.364 70.305,111.531 67.5,107.5C 67.0269,106.094 66.0269,105.427 64.5,105.5C 56.6797,103.251 48.6797,101.751 40.5,101C 38.9698,99.8797 37.3032,99.0464 35.5,98.5C 34.7377,96.7376 33.4044,95.7376 31.5,95.5C 27.6927,93.2253 25.3593,89.8919 24.5,85.5C 24.3921,80.1301 24.7255,74.7968 25.5,69.5C 26.9063,69.0269 27.573,68.0269 27.5,66.5C 28.9108,64.086 30.9108,62.4194 33.5,61.5C 35.0269,61.573 36.0269,60.9063 36.5,59.5C 39.1522,59.5905 41.4855,58.9238 43.5,57.5 Z"/></g>
<g><path style="opacity:1" fill="#939393" d="M 36.5,59.5 C 36.0269,60.9063 35.0269,61.573 33.5,61.5C 33.9731,60.0937 34.9731,59.427 36.5,59.5 Z"/></g>
<g><path style="opacity:1" fill="#9c9c9c" d="M 110.5,60.5 C 110.027,61.9063 109.027,62.573 107.5,62.5C 107.973,61.0937 108.973,60.427 110.5,60.5 Z"/></g>
<g><path style="opacity:1" fill="#6a6a6a" d="M 136.5,59.5 C 137.485,63.6344 137.818,67.9677 137.5,72.5C 135.901,72.7678 134.568,72.4345 133.5,71.5C 134.5,71.5 135.5,71.5 136.5,71.5C 136.5,67.5 136.5,63.5 136.5,59.5 Z"/></g>
<g><path style="opacity:1" fill="#b2b2b2" d="M 104.5,64.5 C 103.415,66.5869 101.749,67.9202 99.5,68.5C 100.585,66.4131 102.251,65.0798 104.5,64.5 Z"/></g>
<g><path style="opacity:1" fill="#909090" d="M 27.5,66.5 C 27.573,68.0269 26.9063,69.0269 25.5,69.5C 25.427,67.9731 26.0937,66.9731 27.5,66.5 Z"/></g>
<g><path style="opacity:1" fill="#373737" d="M 80.5,68.5 C 79.9202,70.7488 78.5869,72.4154 76.5,73.5C 77.0798,71.2512 78.4131,69.5846 80.5,68.5 Z"/></g>
<g><path style="opacity:1" fill="#4f4f4f" d="M 56.5,71.5 C 52.1311,71.4672 47.7978,71.8005 43.5,72.5C 45.8476,71.0483 48.5143,70.3817 51.5,70.5C 53.3693,70.5068 55.036,70.8401 56.5,71.5 Z"/></g>
<g><path style="opacity:1" fill="#9f9f9f" d="M 156.5,69.5 C 159.569,70.8044 160.569,72.8044 159.5,75.5C 158.5,73.5 157.5,71.5 156.5,69.5 Z"/></g>
<g><path style="opacity:1" fill="#979797" d="M 97.5,70.5 C 97.573,72.0269 96.9063,73.0269 95.5,73.5C 95.427,71.9731 96.0937,70.9731 97.5,70.5 Z"/></g>
<g><path style="opacity:1" fill="#626262" d="M 121.5,71.5 C 120.07,72.5375 118.403,73.2041 116.5,73.5C 117.635,71.7868 119.302,71.1201 121.5,71.5 Z"/></g>
<g><path style="opacity:1" fill="#888888" d="M 60.5,71.5 C 62.9674,71.7549 64.9674,72.7549 66.5,74.5C 64.0326,74.2451 62.0326,73.2451 60.5,71.5 Z"/></g>
<g><path style="opacity:1" fill="#4a4a4a" d="M 76.5,73.5 C 76.573,75.0269 75.9063,76.0269 74.5,76.5C 74.427,74.9731 75.0937,73.9731 76.5,73.5 Z"/></g>
<g><path style="opacity:1" fill="#424242" d="M 116.5,73.5 C 116.027,74.9063 115.027,75.573 113.5,75.5C 113.973,74.0937 114.973,73.427 116.5,73.5 Z"/></g>
<g><path style="opacity:1" fill="#a4a4a4" d="M 95.5,73.5 C 95.573,75.0269 94.9063,76.0269 93.5,76.5C 93.427,74.9731 94.0937,73.9731 95.5,73.5 Z"/></g>
<g><path style="opacity:1" fill="#bababa" d="M 25.5,69.5 C 24.7255,74.7968 24.3921,80.1301 24.5,85.5C 23.3516,81.0189 23.1849,76.3522 24,71.5C 24.2784,70.5842 24.7784,69.9175 25.5,69.5 Z"/></g>
<g><path style="opacity:1" fill="#4c4c4c" d="M 157.5,76.5 C 157.027,77.9063 156.027,78.573 154.5,78.5C 154.973,77.0937 155.973,76.427 157.5,76.5 Z"/></g>
<g><path style="opacity:1" fill="#858585" d="M 93.5,76.5 C 93.573,78.0269 92.9063,79.0269 91.5,79.5C 91.427,77.9731 92.0937,76.9731 93.5,76.5 Z"/></g>
<g><path style="opacity:1" fill="#8d8d8d" d="M 38.5,81.5 C 39.5,81.8333 40.1667,82.5 40.5,83.5C 39.1667,83.5 38.5,82.8333 38.5,81.5 Z"/></g>
<g><path style="opacity:1" fill="#5c5c5c" d="M 107.5,81.5 C 107.573,83.0269 106.906,84.0269 105.5,84.5C 105.427,82.9731 106.094,81.9731 107.5,81.5 Z"/></g>
<g><path style="opacity:1" fill="#636363" d="M 40.5,83.5 C 42.0269,83.427 43.0269,84.0937 43.5,85.5C 41.9731,85.573 40.9731,84.9063 40.5,83.5 Z"/></g>
<g><path style="opacity:1" fill="#6c6c6c" d="M 139.5,80.5 C 139.59,83.1522 138.924,85.4855 137.5,87.5C 137.41,84.8478 138.076,82.5145 139.5,80.5 Z"/></g>
<g><path style="opacity:1" fill="#565656" d="M 47.5,86.5 C 50.1522,86.4095 52.4855,87.0762 54.5,88.5C 51.8478,88.5905 49.5145,87.9238 47.5,86.5 Z"/></g>
<g><path style="opacity:1" fill="#464646" d="M 105.5,84.5 C 105.741,86.8984 105.074,88.8984 103.5,90.5C 103.259,88.1016 103.926,86.1016 105.5,84.5 Z"/></g>
<g><path style="opacity:1" fill="#464646" d="M 70.5,92.5 C 72.4832,92.1568 73.8166,92.8235 74.5,94.5C 72.847,94.3404 71.5137,93.6737 70.5,92.5 Z"/></g>
<g><path style="opacity:1" fill="#757575" d="M 130.5,101.5 C 131.371,98.8877 132.037,96.221 132.5,93.5C 126.974,93.1786 121.64,93.5119 116.5,94.5C 115.957,94.44 115.624,94.1067 115.5,93.5C 121.463,92.5041 127.463,92.1707 133.5,92.5C 133.862,96.081 132.862,99.081 130.5,101.5 Z"/></g>
<g><path style="opacity:1" fill="#858585" d="M 148.5,90.5 C 154.074,92.4533 160.074,93.12 166.5,92.5C 166.819,97.3633 166.486,102.03 165.5,106.5C 165.5,102.167 165.5,97.8333 165.5,93.5C 159.5,93.5 153.5,93.5 147.5,93.5C 147.263,92.209 147.596,91.209 148.5,90.5 Z"/></g>
<g><path style="opacity:1" fill="#f1f1f1" d="M 116.5,94.5 C 121.64,93.5119 126.974,93.1786 132.5,93.5C 132.037,96.221 131.371,98.8877 130.5,101.5C 130.579,102.93 130.246,104.264 129.5,105.5C 127.235,106.647 124.902,106.814 122.5,106C 120.868,101.9 118.868,98.0671 116.5,94.5 Z"/></g>
<g><path style="opacity:1" fill="#868686" d="M 90.5,81.5 C 88.8185,88.7121 88.1518,96.0455 88.5,103.5C 87.3493,98.3497 87.1826,93.0164 88,87.5C 88.5662,85.2774 89.3995,83.2774 90.5,81.5 Z"/></g>
<g><path style="opacity:1" fill="#9c9c9c" d="M 31.5,95.5 C 33.4044,95.7376 34.7377,96.7376 35.5,98.5C 33.5956,98.2624 32.2623,97.2624 31.5,95.5 Z"/></g>
<g><path style="opacity:1" fill="#909090" d="M 136.5,93.5 C 136.655,96.716 135.655,99.3826 133.5,101.5C 134.129,98.6027 135.129,95.936 136.5,93.5 Z"/></g>
<g><path style="opacity:1" fill="#adadad" d="M 78.5,97.5 C 80.2624,98.2623 81.2624,99.5956 81.5,101.5C 79.7376,100.738 78.7376,99.4044 78.5,97.5 Z"/></g>
<g><path style="opacity:1" fill="#808080" d="M 81.5,101.5 C 82.9063,101.973 83.573,102.973 83.5,104.5C 82.0937,104.027 81.427,103.027 81.5,101.5 Z"/></g>
<g><path style="opacity:1" fill="#8d8d8d" d="M 132.5,105.5 C 138.5,105.5 144.5,105.5 150.5,105.5C 150.737,106.791 150.404,107.791 149.5,108.5C 144.073,106.854 138.406,105.854 132.5,105.5 Z"/></g>
<g><path style="opacity:1" fill="#a1a1a1" d="M 64.5,105.5 C 66.0269,105.427 67.0269,106.094 67.5,107.5C 65.9731,107.573 64.9731,106.906 64.5,105.5 Z"/></g>
<g><path style="opacity:1" fill="#737373" d="M 88.5,104.5 C 89.871,106.936 90.871,109.603 91.5,112.5C 89.3455,110.383 88.3455,107.716 88.5,104.5 Z"/></g>
<g><path style="opacity:1" fill="#646464" d="M 165.5,107.5 C 165.655,110.716 164.655,113.383 162.5,115.5C 163.129,112.603 164.129,109.936 165.5,107.5 Z"/></g>
<g><path style="opacity:1" fill="#909090" d="M 149.5,109.5 C 149.573,111.027 148.906,112.027 147.5,112.5C 147.427,110.973 148.094,109.973 149.5,109.5 Z"/></g>
<g><path style="opacity:1" fill="#a3a3a3" d="M 147.5,112.5 C 147.573,114.027 146.906,115.027 145.5,115.5C 145.427,113.973 146.094,112.973 147.5,112.5 Z"/></g>
<g><path style="opacity:1" fill="#6c6c6c" d="M 36.5,116.5 C 38.0269,116.427 39.0269,117.094 39.5,118.5C 37.9731,118.573 36.9731,117.906 36.5,116.5 Z"/></g>
<g><path style="opacity:1" fill="#464646" d="M 113.5,117.5 C 115.027,117.427 116.027,118.094 116.5,119.5C 114.973,119.573 113.973,118.906 113.5,117.5 Z"/></g>
<g><path style="opacity:1" fill="#4a4a4a" d="M 93.5,117.5 C 94.9063,117.973 95.573,118.973 95.5,120.5C 94.0937,120.027 93.427,119.027 93.5,117.5 Z"/></g>
<g><path style="opacity:1" fill="#797979" d="M 116.5,119.5 C 117.609,119.557 118.609,119.89 119.5,120.5C 119.5,120.833 119.5,121.167 119.5,121.5C 117.973,121.573 116.973,120.906 116.5,119.5 Z"/></g>
<g><path style="opacity:1" fill="#b3b3b3" d="M 141.5,118.5 C 140.514,120.408 138.848,121.408 136.5,121.5C 137.659,119.75 139.326,118.75 141.5,118.5 Z"/></g>
<g><path style="opacity:1" fill="#4a4a4a" d="M 160.5,119.5 C 160.573,121.027 159.906,122.027 158.5,122.5C 158.427,120.973 159.094,119.973 160.5,119.5 Z"/></g>
<g><path style="opacity:1" fill="#acacac" d="M 26.5,119.5 C 26.2624,121.404 25.2624,122.738 23.5,123.5C 23.7376,121.596 24.7376,120.262 26.5,119.5 Z"/></g>
<g><path style="opacity:1" fill="#717171" d="M 43.5,120.5 C 46.1522,120.41 48.4855,121.076 50.5,122.5C 47.8478,122.59 45.5145,121.924 43.5,120.5 Z"/></g>
<g><path style="opacity:1" fill="#b4b4b4" d="M 122.5,122.5 C 125.5,122.5 128.5,122.5 131.5,122.5C 128.61,123.245 125.61,123.912 122.5,124.5C 122.5,123.833 122.5,123.167 122.5,122.5 Z"/></g>
<g><path style="opacity:1" fill="#242424" d="M 119.5,120.5 C 120.778,120.782 121.778,121.449 122.5,122.5C 122.5,123.167 122.5,123.833 122.5,124.5C 120.674,126.147 119.34,128.147 118.5,130.5C 117.167,131.5 115.833,132.5 114.5,133.5C 114.5,132.833 114.167,132.5 113.5,132.5C 115.5,128.833 117.5,125.167 119.5,121.5C 119.5,121.167 119.5,120.833 119.5,120.5 Z"/></g>
<g><path style="opacity:1" fill="#9e9e9e" d="M 25.5,126.5 C 27.0269,126.427 28.0269,127.094 28.5,128.5C 26.9731,128.573 25.9731,127.906 25.5,126.5 Z"/></g>
<g><path style="opacity:1" fill="#444444" d="M 153.5,127.5 C 153.027,128.906 152.027,129.573 150.5,129.5C 150.973,128.094 151.973,127.427 153.5,127.5 Z"/></g>
<g><path style="opacity:1" fill="#919191" d="M 28.5,128.5 C 30.0269,128.427 31.0269,129.094 31.5,130.5C 29.9731,130.573 28.9731,129.906 28.5,128.5 Z"/></g>
<g><path style="opacity:1" fill="#a4a4a4" d="M 104.5,128.5 C 106.027,128.427 107.027,129.094 107.5,130.5C 105.973,130.573 104.973,129.906 104.5,128.5 Z"/></g>
<g><path style="opacity:1" fill="#868686" d="M 107.5,130.5 C 109.027,130.427 110.027,131.094 110.5,132.5C 108.973,132.573 107.973,131.906 107.5,130.5 Z"/></g>
<g><path style="opacity:1" fill="#909090" d="M 35.5,132.5 C 38.855,132.69 41.855,133.69 44.5,135.5C 41.0836,135.472 38.0836,134.472 35.5,132.5 Z"/></g>
<g><path style="opacity:1" fill="#525252" d="M 75.5,131.5 C 73.9674,133.245 71.9674,134.245 69.5,134.5C 71.0326,132.755 73.0326,131.755 75.5,131.5 Z"/></g>
<g><path style="opacity:1" fill="#b0b0b0" d="M 118.5,130.5 C 117.243,133.427 115.243,135.761 112.5,137.5C 112.733,135.938 113.4,134.605 114.5,133.5C 115.833,132.5 117.167,131.5 118.5,130.5 Z"/></g>
<g><path style="opacity:1" fill="#515151" d="M 40.5,149.5 C 39.8333,149.5 39.5,149.833 39.5,150.5C 37.6231,149.341 37.1231,147.674 38,145.5C 39.0946,146.693 39.928,148.027 40.5,149.5 Z"/></g>
<g><path style="opacity:1" fill="#c1c1c1" d="M 103.5,146.5 C 102.415,148.587 100.749,149.92 98.5,150.5C 99.5846,148.413 101.251,147.08 103.5,146.5 Z"/></g>
<g><path style="opacity:1" fill="#878787" d="M 40.5,149.5 C 41.5,150.833 42.5,152.167 43.5,153.5C 42.6618,153.842 42.3284,154.508 42.5,155.5C 41.1103,154.101 40.1103,152.434 39.5,150.5C 39.5,149.833 39.8333,149.5 40.5,149.5 Z"/></g>
<g><path style="opacity:1" fill="#a2a2a2" d="M 88.5,156.5 C 87.3646,158.213 85.698,158.88 83.5,158.5C 84.9303,157.463 86.597,156.796 88.5,156.5 Z"/></g>
<g><path style="opacity:1" fill="#4b4b4b" d="M 104.5,156.5 C 104.027,157.906 103.027,158.573 101.5,158.5C 101.973,157.094 102.973,156.427 104.5,156.5 Z"/></g>
<g><path style="opacity:1" fill="#5e5e5e" d="M 48.5,157.5 C 50.0269,157.427 51.0269,158.094 51.5,159.5C 49.9731,159.573 48.9731,158.906 48.5,157.5 Z"/></g>
<g><path style="opacity:1" fill="#cdcdcd" d="M 43.5,153.5 C 44.9448,155.063 46.6115,156.396 48.5,157.5C 48.9731,158.906 49.9731,159.573 51.5,159.5C 51.5,159.833 51.5,160.167 51.5,160.5C 50.7611,160.369 50.0944,160.536 49.5,161C 50.3805,161.708 51.0472,162.542 51.5,163.5C 47.8998,161.57 44.8998,158.903 42.5,155.5C 42.3284,154.508 42.6618,153.842 43.5,153.5 Z"/></g>
<g><path style="opacity:1" fill="#454545" d="M 101.5,158.5 C 101.027,159.906 100.027,160.573 98.5,160.5C 98.9731,159.094 99.9731,158.427 101.5,158.5 Z"/></g>
<g><path style="opacity:1" fill="#4c4c4c" d="M 51.5,160.5 C 51.5,160.167 51.5,159.833 51.5,159.5C 53.8984,159.259 55.8984,159.926 57.5,161.5C 55.4352,161.483 53.4352,161.15 51.5,160.5 Z"/></g>
<g><path style="opacity:1" fill="#9b9b9b" d="M 83.5,158.5 C 81.3826,160.655 78.716,161.655 75.5,161.5C 77.936,160.129 80.6027,159.129 83.5,158.5 Z"/></g>
<g><path style="opacity:1" fill="#909090" d="M 51.5,163.5 C 53.0269,163.427 54.0269,164.094 54.5,165.5C 52.9731,165.573 51.9731,164.906 51.5,163.5 Z"/></g>
<g><path style="opacity:1" fill="#989898" d="M 54.5,165.5 C 57.6489,165.415 60.3155,166.415 62.5,168.5C 59.3511,168.585 56.6845,167.585 54.5,165.5 Z"/></g>
</svg>
